<?xml version="1.0" encoding="utf-8"?>
<!-- Generator: Adobe Illustrator 15.0.0, SVG Export Plug-In . SVG Version: 6.00 Build 0)  -->
<!DOCTYPE svg PUBLIC "-//W3C//DTD SVG 1.1//EN" "http://www.w3.org/Graphics/SVG/1.1/DTD/svg11.dtd">
<svg version="1.1" id="Layer_1" xmlns="http://www.w3.org/2000/svg" xmlns:xlink="http://www.w3.org/1999/xlink" x="0px" y="0px"
	 width="75px" height="75px" viewBox="0 0 75 75" enable-background="new 0 0 75 75" xml:space="preserve">
<rect x="-0.308" y="-4" fill="#CCCCCC" width="76.105" height="82"/>
<g>
	<path fill="#FFFFFF" d="M8.068,39.424v-3.785h0.764v3.785H8.068z"/>
	<path fill="#FFFFFF" d="M9.549,39.424v-3.785h1.144l0.687,2.582l0.679-2.582h1.146v3.785h-0.71v-2.98l-0.75,2.98h-0.735l-0.75-2.98
		v2.98H9.549z"/>
	<path fill="#FFFFFF" d="M17.376,39.424h-0.831l-0.331-0.86h-1.513l-0.313,0.86h-0.81l1.473-3.785h0.808L17.376,39.424z
		 M15.969,37.926l-0.521-1.404l-0.511,1.404H15.969z"/>
	<path fill="#FFFFFF" d="M19.541,38.031v-0.637h1.648V38.9c-0.16,0.156-0.392,0.291-0.696,0.41
		c-0.303,0.118-0.611,0.177-0.922,0.177c-0.396,0-0.741-0.082-1.035-0.248s-0.516-0.404-0.664-0.713s-0.221-0.646-0.221-1.008
		c0-0.394,0.082-0.744,0.247-1.051c0.165-0.306,0.408-0.541,0.726-0.705c0.243-0.126,0.544-0.188,0.906-0.188
		c0.47,0,0.836,0.098,1.1,0.295c0.265,0.196,0.435,0.469,0.511,0.817l-0.759,0.142c-0.053-0.187-0.153-0.333-0.301-0.44
		c-0.147-0.108-0.331-0.162-0.551-0.162c-0.334,0-0.599,0.106-0.797,0.317c-0.197,0.212-0.295,0.526-0.295,0.942
		c0,0.449,0.1,0.785,0.299,1.01c0.2,0.226,0.462,0.338,0.785,0.338c0.16,0,0.32-0.032,0.481-0.096
		c0.161-0.062,0.299-0.138,0.414-0.228v-0.48H19.541z"/>
	<path fill="#FFFFFF" d="M21.894,39.424v-3.785h2.805v0.64h-2.042v0.839h1.9v0.638h-1.9v1.029h2.114v0.639H21.894z"/>
	<path fill="#FFFFFF" d="M26.888,39.424v-3.785h1.226c0.465,0,0.768,0.02,0.908,0.057c0.217,0.057,0.399,0.18,0.545,0.37
		c0.146,0.19,0.22,0.436,0.22,0.737c0,0.232-0.042,0.427-0.127,0.586s-0.191,0.283-0.322,0.373c-0.13,0.091-0.261,0.15-0.396,0.179
		c-0.183,0.037-0.447,0.055-0.793,0.055h-0.499v1.428H26.888z M27.651,36.278v1.074h0.418c0.301,0,0.502-0.02,0.604-0.059
		s0.182-0.102,0.239-0.186C28.971,37.023,29,36.925,29,36.813c0-0.137-0.041-0.251-0.121-0.34c-0.082-0.09-0.183-0.146-0.308-0.168
		c-0.09-0.018-0.273-0.026-0.549-0.026H27.651z"/>
	<path fill="#FFFFFF" d="M30.434,39.424V35.67h0.764v3.115h1.9v0.639H30.434z"/>
	<path fill="#FFFFFF" d="M37.055,39.424h-0.831l-0.33-0.86h-1.513l-0.313,0.86h-0.809l1.473-3.785h0.808L37.055,39.424z
		 M35.649,37.926l-0.521-1.404l-0.511,1.404H35.649z"/>
	<path fill="#FFFFFF" d="M39.882,38.031l0.741,0.235c-0.113,0.414-0.303,0.72-0.566,0.92c-0.265,0.2-0.6,0.301-1.006,0.301
		c-0.503,0-0.916-0.171-1.238-0.515c-0.325-0.344-0.486-0.812-0.486-1.408c0-0.63,0.162-1.119,0.488-1.467
		c0.324-0.348,0.753-0.522,1.283-0.522c0.463,0,0.838,0.137,1.128,0.41c0.172,0.162,0.301,0.394,0.387,0.697l-0.756,0.181
		c-0.044-0.197-0.139-0.352-0.28-0.465c-0.143-0.114-0.314-0.17-0.517-0.17c-0.282,0-0.51,0.101-0.684,0.302
		c-0.176,0.202-0.263,0.528-0.263,0.978c0,0.479,0.087,0.82,0.259,1.023c0.171,0.203,0.396,0.305,0.671,0.305
		c0.202,0,0.377-0.064,0.523-0.194C39.713,38.512,39.818,38.31,39.882,38.031z"/>
	<path fill="#FFFFFF" d="M41.278,39.424v-3.785h2.806v0.64h-2.042v0.839h1.9v0.638h-1.9v1.029h2.114v0.639H41.278z"/>
	<path fill="#FFFFFF" d="M44.808,39.424v-3.785h0.764v1.489h1.497v-1.489h0.763v3.785h-0.763v-1.656h-1.497v1.656H44.808z"/>
	<path fill="#FFFFFF" d="M48.467,37.555c0-0.386,0.059-0.709,0.173-0.971c0.086-0.193,0.204-0.366,0.354-0.519
		c0.148-0.153,0.312-0.267,0.489-0.341c0.235-0.1,0.507-0.149,0.815-0.149c0.558,0,1.003,0.173,1.338,0.519
		c0.335,0.346,0.503,0.827,0.503,1.444c0,0.609-0.167,1.088-0.499,1.435c-0.332,0.344-0.776,0.516-1.332,0.516
		c-0.562,0-1.011-0.171-1.343-0.515C48.634,38.629,48.467,38.157,48.467,37.555z M49.255,37.529c0,0.428,0.1,0.752,0.298,0.974
		c0.196,0.221,0.447,0.332,0.753,0.332c0.305,0,0.554-0.109,0.75-0.33c0.194-0.219,0.292-0.548,0.292-0.987
		c0-0.434-0.095-0.757-0.284-0.971c-0.19-0.212-0.443-0.319-0.758-0.319c-0.316,0-0.569,0.107-0.762,0.324
		C49.352,36.767,49.255,37.093,49.255,37.529z"/>
	<path fill="#FFFFFF" d="M52.755,39.424V35.67h0.764v3.115h1.9v0.639H52.755z"/>
	<path fill="#FFFFFF" d="M55.961,35.639h1.396c0.314,0,0.555,0.024,0.72,0.073c0.222,0.065,0.413,0.181,0.57,0.348
		c0.159,0.167,0.279,0.371,0.361,0.613c0.083,0.242,0.124,0.54,0.124,0.894c0,0.312-0.038,0.58-0.116,0.806
		c-0.094,0.275-0.229,0.499-0.405,0.669c-0.132,0.13-0.312,0.229-0.537,0.302c-0.167,0.053-0.394,0.081-0.676,0.081h-1.438V35.639z
		 M56.725,36.278v2.507h0.57c0.214,0,0.367-0.012,0.462-0.035c0.125-0.031,0.228-0.084,0.31-0.157
		c0.081-0.075,0.147-0.196,0.199-0.366c0.052-0.169,0.078-0.4,0.078-0.693c0-0.292-0.026-0.516-0.078-0.673
		c-0.052-0.157-0.123-0.279-0.217-0.367c-0.094-0.087-0.21-0.147-0.354-0.178c-0.105-0.024-0.315-0.037-0.626-0.037H56.725z"/>
	<path fill="#FFFFFF" d="M59.781,39.424v-3.785h2.806v0.64h-2.042v0.839h1.9v0.638h-1.9v1.029h2.114v0.639H59.781z"/>
	<path fill="#FFFFFF" d="M63.31,39.424v-3.785h1.607c0.405,0,0.699,0.034,0.883,0.102c0.183,0.068,0.329,0.189,0.439,0.363
		s0.165,0.373,0.165,0.596c0,0.284-0.082,0.518-0.25,0.704c-0.167,0.185-0.416,0.302-0.749,0.351
		c0.166,0.096,0.302,0.202,0.41,0.316c0.107,0.116,0.251,0.32,0.434,0.614l0.463,0.739h-0.914L65.246,38.6
		c-0.197-0.294-0.331-0.479-0.402-0.556c-0.072-0.077-0.148-0.129-0.231-0.158c-0.08-0.028-0.209-0.043-0.384-0.043h-0.154v1.581
		H63.31z M64.074,37.239h0.564c0.367,0,0.596-0.015,0.688-0.047c0.091-0.031,0.162-0.084,0.214-0.16
		c0.051-0.075,0.076-0.17,0.076-0.283c0-0.128-0.033-0.23-0.101-0.309c-0.068-0.079-0.164-0.128-0.288-0.148
		c-0.062-0.008-0.248-0.014-0.558-0.014h-0.596V37.239z"/>
</g>
</svg>
