<?xml version="1.0" encoding="utf-8"?>
<!-- Generator: Adobe Illustrator 15.0.0, SVG Export Plug-In . SVG Version: 6.00 Build 0)  -->
<!DOCTYPE svg PUBLIC "-//W3C//DTD SVG 1.1//EN" "http://www.w3.org/Graphics/SVG/1.1/DTD/svg11.dtd">
<svg version="1.1" id="Layer_1" xmlns="http://www.w3.org/2000/svg" xmlns:xlink="http://www.w3.org/1999/xlink" x="0px" y="0px"
	 width="75px" height="75px" viewBox="0 0 75 75" enable-background="new 0 0 75 75" xml:space="preserve">
<rect x="1.548" y="-2" fill="#CCCCCC" width="72.393" height="78"/>
<g>
	<path fill="#FFFFFF" d="M9.516,39.306v-3.601h0.726v3.601H9.516z"/>
	<path fill="#FFFFFF" d="M10.925,39.306v-3.601h1.087l0.654,2.456l0.646-2.456h1.09v3.601h-0.675v-2.835l-0.714,2.835h-0.7
		L11.6,36.471v2.835H10.925z"/>
	<path fill="#FFFFFF" d="M18.37,39.306h-0.791l-0.314-0.818h-1.439l-0.297,0.818h-0.771l1.401-3.601h0.769L18.37,39.306z
		 M17.031,37.881l-0.496-1.335l-0.486,1.335H17.031z"/>
	<path fill="#FFFFFF" d="M20.429,37.981v-0.606h1.567v1.433c-0.152,0.148-0.373,0.277-0.662,0.391
		c-0.289,0.112-0.581,0.168-0.878,0.168c-0.377,0-0.704-0.079-0.984-0.236c-0.28-0.158-0.491-0.385-0.631-0.679
		c-0.141-0.293-0.21-0.613-0.21-0.958c0-0.375,0.078-0.708,0.234-1c0.157-0.291,0.388-0.514,0.69-0.67
		c0.231-0.12,0.518-0.179,0.862-0.179c0.447,0,0.795,0.093,1.046,0.281c0.251,0.187,0.414,0.446,0.486,0.777l-0.723,0.135
		c-0.05-0.177-0.146-0.316-0.286-0.418c-0.139-0.103-0.314-0.154-0.523-0.154c-0.318,0-0.57,0.101-0.758,0.302
		c-0.188,0.202-0.281,0.5-0.281,0.896c0,0.427,0.095,0.748,0.284,0.96c0.19,0.215,0.44,0.321,0.747,0.321
		c0.152,0,0.304-0.03,0.458-0.09s0.285-0.132,0.394-0.217v-0.457H20.429z"/>
	<path fill="#FFFFFF" d="M22.667,39.306v-3.601h2.668v0.608h-1.942v0.798H25.2v0.607h-1.808v0.979h2.011v0.607H22.667z"/>
	<path fill="#FFFFFF" d="M27.417,39.306v-3.601h1.166c0.442,0,0.73,0.019,0.864,0.054c0.207,0.054,0.379,0.171,0.519,0.352
		c0.139,0.181,0.209,0.415,0.209,0.702c0,0.221-0.041,0.406-0.121,0.557c-0.081,0.151-0.182,0.269-0.306,0.354
		c-0.124,0.086-0.249,0.143-0.376,0.17c-0.173,0.035-0.425,0.052-0.754,0.052h-0.474v1.358H27.417z M28.144,36.313v1.022h0.398
		c0.286,0,0.478-0.019,0.574-0.056s0.173-0.097,0.228-0.177c0.055-0.081,0.083-0.173,0.083-0.28c0-0.131-0.039-0.239-0.116-0.323
		c-0.077-0.086-0.174-0.139-0.292-0.16c-0.086-0.017-0.26-0.025-0.522-0.025H28.144z"/>
	<path fill="#FFFFFF" d="M30.791,39.306v-3.571h0.727v2.964h1.808v0.607H30.791z"/>
	<path fill="#FFFFFF" d="M37.089,39.306h-0.791l-0.314-0.818h-1.439l-0.298,0.818h-0.77l1.401-3.601h0.768L37.089,39.306z
		 M35.751,37.881l-0.495-1.335l-0.486,1.335H35.751z"/>
	<path fill="#FFFFFF" d="M39.777,37.981l0.705,0.224c-0.107,0.394-0.288,0.685-0.539,0.875s-0.569,0.286-0.956,0.286
		c-0.479,0-0.871-0.163-1.178-0.49c-0.309-0.326-0.462-0.771-0.462-1.339c0-0.599,0.155-1.064,0.464-1.396
		c0.309-0.332,0.716-0.498,1.22-0.498c0.44,0,0.798,0.13,1.073,0.39c0.163,0.154,0.286,0.375,0.368,0.663l-0.719,0.172
		c-0.043-0.188-0.132-0.334-0.267-0.442c-0.136-0.108-0.3-0.162-0.492-0.162c-0.268,0-0.484,0.096-0.649,0.287
		c-0.168,0.192-0.25,0.502-0.25,0.931c0,0.456,0.082,0.779,0.246,0.972c0.163,0.193,0.376,0.29,0.638,0.29
		c0.192,0,0.359-0.062,0.498-0.185C39.616,38.438,39.717,38.246,39.777,37.981z"/>
	<path fill="#FFFFFF" d="M41.106,39.306v-3.601h2.668v0.608h-1.942v0.798h1.808v0.607h-1.808v0.979h2.012v0.607H41.106z"/>
	<path fill="#FFFFFF" d="M44.463,39.306v-3.601h0.727v1.417h1.424v-1.417h0.727v3.601h-0.727V37.73h-1.424v1.575H44.463z"/>
	<path fill="#FFFFFF" d="M47.943,37.527c0-0.367,0.056-0.674,0.165-0.923c0.081-0.184,0.194-0.349,0.336-0.494
		c0.142-0.146,0.296-0.254,0.465-0.324c0.225-0.095,0.483-0.143,0.776-0.143c0.53,0,0.954,0.165,1.272,0.493
		c0.319,0.33,0.479,0.787,0.479,1.374c0,0.58-0.159,1.035-0.475,1.364c-0.316,0.328-0.738,0.491-1.268,0.491
		c-0.534,0-0.961-0.163-1.277-0.49C48.103,38.55,47.943,38.101,47.943,37.527z M48.693,37.503c0,0.407,0.095,0.716,0.283,0.926
		c0.187,0.211,0.426,0.316,0.716,0.316s0.527-0.104,0.714-0.313c0.185-0.208,0.278-0.521,0.278-0.938
		c0-0.413-0.09-0.721-0.271-0.924c-0.181-0.202-0.421-0.304-0.721-0.304s-0.541,0.102-0.724,0.308
		C48.785,36.778,48.693,37.088,48.693,37.503z"/>
	<path fill="#FFFFFF" d="M52.022,39.306v-3.571h0.727v2.964h1.808v0.607H52.022z"/>
	<path fill="#FFFFFF" d="M55.072,35.705H56.4c0.3,0,0.527,0.023,0.685,0.069c0.212,0.062,0.393,0.172,0.543,0.331
		c0.151,0.159,0.266,0.353,0.344,0.583c0.079,0.23,0.118,0.514,0.118,0.851c0,0.297-0.036,0.552-0.11,0.767
		c-0.09,0.262-0.219,0.474-0.387,0.636c-0.125,0.123-0.296,0.219-0.51,0.287c-0.159,0.05-0.375,0.077-0.643,0.077h-1.368V35.705z
		 M55.799,36.313v2.385h0.543c0.203,0,0.349-0.011,0.439-0.033c0.118-0.03,0.216-0.08,0.294-0.15
		c0.077-0.071,0.141-0.187,0.189-0.348s0.074-0.381,0.074-0.66c0-0.278-0.025-0.491-0.074-0.641s-0.117-0.265-0.206-0.349
		s-0.2-0.14-0.337-0.169c-0.101-0.023-0.301-0.035-0.596-0.035H55.799z"/>
	<path fill="#FFFFFF" d="M58.706,39.306v-3.601h2.669v0.608h-1.942v0.798h1.808v0.607h-1.808v0.979h2.012v0.607H58.706z"/>
	<path fill="#FFFFFF" d="M62.062,39.306v-3.601h1.529c0.385,0,0.664,0.032,0.84,0.097c0.173,0.065,0.312,0.18,0.417,0.345
		c0.105,0.165,0.157,0.354,0.157,0.567c0,0.271-0.078,0.493-0.238,0.669c-0.158,0.176-0.395,0.287-0.711,0.333
		c0.157,0.091,0.286,0.192,0.389,0.302c0.103,0.11,0.24,0.304,0.413,0.584l0.44,0.703H64.43l-0.525-0.784
		c-0.188-0.279-0.314-0.455-0.383-0.528s-0.142-0.123-0.22-0.151c-0.076-0.027-0.198-0.041-0.365-0.041H62.79v1.504H62.062z
		 M62.79,37.228h0.537c0.349,0,0.566-0.014,0.653-0.044c0.086-0.029,0.154-0.08,0.203-0.152c0.049-0.071,0.073-0.161,0.073-0.269
		c0-0.122-0.031-0.219-0.096-0.294c-0.065-0.075-0.156-0.122-0.273-0.141c-0.06-0.008-0.236-0.013-0.531-0.013H62.79V37.228z"/>
</g>
</svg>
